{"title":"Kid.Cannabis.2014.480p.BRRip.XviD.AC3-N3kr4","uid":10390293,"size":2135476359,"categoryP":"video","categoryS":"hd___movies","magnet":"?xt=urn:btih:571e6b65893290a95b9eb7d4349dca52919f5c79&amp;dn=Kid.Cannabis.2014.480p.BRRip.XviD.AC3-N3kr4&amp;tr=udp%3A%2F%2Ftracker.openbittorrent.com%3A80&amp;tr=udp%3A%2F%2Fopen.demonii.com%3A1337&amp;tr=udp%3A%2F%2Ftracker.coppersurfer.tk%3A6969&amp;tr=udp%3A%2F%2Fexodus.desync.com%3A6969","seeders":1,"leechers":0,"uploader":"Falcon.G13","files":2,"time":1403190888,"description":"Kid Cannabis (2014)\n 110 min - Crime | Drama - 18 April 2014 (USA)\n6.3 Your rating: -/10 Ratings: 6.3/10 from 1,186 users Metascore: 54/100 \nReviews: 8 user | 5 critic \n\nAn eighteen year old high school drop out\n and his twenty-seven year old friend start\n trafficking marijuana across the border of \nCanada in order to make money and their \nlives are changed forever.\n &lt;a href=&quot;\nhttp://i.imgur.com/yLgEy0j.jpg&quot; rel=&quot;nofollow&quot; target=&quot;_NEW&quot;&gt;\nhttp://i.imgur.com/yLgEy0j.jpg&lt;/a&gt; &lt;a href=&quot;\nhttp://i.imgur.com/SkpiNHr.jpg&quot; rel=&quot;nofollow&quot; target=&quot;_NEW&quot;&gt;\nhttp://i.imgur.com/SkpiNHr.jpg&lt;/a&gt; &lt;a href=&quot;\nhttp://i.imgur.com/RgGbVQD.jpg&quot; rel=&quot;nofollow&quot; target=&quot;_NEW&quot;&gt;\nhttp://i.imgur.com/RgGbVQD.jpg&lt;/a&gt; &lt;a href=&quot;\nhttp://i.imgur.com/tRpnr12.jpg&quot; rel=&quot;nofollow&quot; target=&quot;_NEW&quot;&gt;\nhttp://i.imgur.com/tRpnr12.jpg&lt;/a&gt; &lt;a href=&quot;\nhttp://i.imgur.com/LoSOdAo.jpg&quot; rel=&quot;nofollow&quot; target=&quot;_NEW&quot;&gt;\nhttp://i.imgur.com/LoSOdAo.jpg&lt;/a&gt; &lt;a href=&quot;\nhttp://i.imgur.com/pnoFhBm.jpg&quot; rel=&quot;nofollow&quot; target=&quot;_NEW&quot;&gt;\nhttp://i.imgur.com/pnoFhBm.jpg&lt;/a&gt; &lt;a href=&quot;\nhttp://i.imgur.com/Dnv4mQg.jpg&quot; rel=&quot;nofollow&quot; target=&quot;_NEW&quot;&gt;\nhttp://i.imgur.com/Dnv4mQg.jpg&lt;/a&gt; &lt;a href=&quot;\nhttp://i.imgur.com/T9odSMb.jpg&quot; rel=&quot;nofollow&quot; target=&quot;_NEW&quot;&gt;\nhttp://i.imgur.com/T9odSMb.jpg&lt;/a&gt;\n\nGeneral\nComplete name : Kid.Cannabis.2014.480p.BRRip.XviD.AC3-N3kr4.avi\nFormat : AVI\nFormat/Info : Audio Video Interleave\nFormat profile : OpenDML\nFile size : 1.99 GiB\nDuration : 1h 49mn\nOverall bit rate : 2 597 Kbps\nWriting application : Lavf55.7.100\n\nVideo\nID : 0\nFormat : MPEG-4 Visual\nFormat profile : Advanced Simple@L1\nFormat settings, BVOP : No\nFormat settings, QPel : No\nFormat settings, GMC : No warppoints\nFormat settings, Matrix : Default (H.263)\nCodec ID : XVID\nCodec ID/Hint : XviD\nDuration : 1h 49mn\nBit rate : 1 947 Kbps\nWidth : 720 pixels\nHeight : 400 pixels\nDisplay aspect ratio : 16:9\nFrame rate : 23.976 fps\nColor space : YUV\nChroma subsampling : 4:2:0\nBit depth : 8 bits\nScan type : Progressive\nCompression mode : Lossy\nBits/(Pixel*Frame) : 0.282\nStream size : 1.49 GiB (75%)\nWriting library : Lavc55.12.100\n\nAudio\nID : 1\nFormat : AC-3\nFormat/Info : Audio Coding 3\nMode extension : CM (complete main)\nFormat settings, Endianness : Big\nCodec ID : 2000\nDuration : 1h 49mn\nBit rate mode : Constant\nBit rate : 640 Kbps\nChannel(s) : 6 channels\nChannel positions : Front: L C R, Side: L R, LFE\nSampling rate : 48.0 KHz\nBit depth : 16 bits\nCompression mode : Lossy\nStream size : 502 MiB (25%)\nAlignment : Aligned on interleaves\nInterleave, duration : 32 ms (0.77 video frame)\nInterleave, preload duration : 32 ms","torrent":{"xt":"urn:btih:571e6b65893290a95b9eb7d4349dca52919f5c79","amp;dn":"Kid.Cannabis.2014.480p.BRRip.XviD.AC3-N3kr4","amp;tr":["udp%3A%2F%2Ftracker.openbittorrent.com%3A80","udp%3A%2F%2Fopen.demonii.com%3A1337","udp%3A%2F%2Ftracker.coppersurfer.tk%3A6969","udp%3A%2F%2Fexodus.desync.com%3A6969"],"infoHash":"571e6b65893290a95b9eb7d4349dca52919f5c79","infoHashBuffer":{"type":"Buffer","data":[87,30,107,101,137,50,144,169,91,158,183,212,52,157,202,82,145,159,92,121]},"announce":[],"urlList":[]}}